<?xml version="1.0" encoding="UTF-8"?>
<svg id="details" xmlns="http://www.w3.org/2000/svg" viewBox="0 0 1084.73 501.89">
  <defs>
    <style>
      .cls-1 {
        stroke-width: 0px;
      }
    </style>
  </defs>
  <path class="cls-1" d="m348.61,307.7h65.58l.16-131.55c0-38.52,14.57-64.82,50.27-64.82s43.21,24.89,43.21,50.73v145.65h65.78v-132.97c0-43.69,19.25-63.42,50.26-63.42,35.23,0,42.75,28.18,42.75,51.2v145.18h65.76v-146.59c0-71.86-39.45-100.99-89.24-100.99-46.51,0-69.05,22.55-81.73,41.33-9.86-22.55-31.47-41.33-72.8-41.33s-62.47,18.78-75.16,37.11c0-9.86-.47-21.16-1.88-30.53h-62.95v47.6c-10.99-26.94-41.11-52.98-106.28-54.11-1.45,0-2.88-.06-4.37-.06-64.29,0-94.57,25-104.56,52.59v-46.02h-66.73v241h66.73v-39.3c19.99,29.5,59.24,45.57,108.93,45.81h1.27c20.49,0,37.96-2.08,52.69-5.83l7.76-2.2c20.73-6.58,35.29-16.85,44.57-29.48v30.99h-.02Zm-100.8-39.96c-1.89,0-3.69-.06-5.49-.13-32.55-1.29-49.8-14.1-56.03-33.69h-52.89v-75.13c8.44,21.89,33.2,42.14,99.39,51.16,3.35.42,6.53.85,9.54,1.29,44,6.45,53.87,15.2,53.87,29.71s-11.27,26.79-48.38,26.79m100.8-73.34c-13.92-16.68-41.99-30.35-97.04-38.45-3.26-.48-6.34-.96-9.25-1.45-39.82-6.64-47.59-13.95-47.59-25.32,0-10.33,6.57-23.96,40.39-23.96,2.52,0,4.88.06,7.19.19,33.89,1.87,42.32,17.02,45.42,28.48h60.88v60.51Z"/>
</svg>